<mxfile host="app.diagrams.net" agent="Mozilla/5.0 (Windows NT 10.0; Win64; x64) AppleWebKit/537.36 (KHTML, like Gecko) Chrome/131.0.0.0 Safari/537.36" version="26.0.1">
  <diagram name="Page-1" id="03018318-947c-dd8e-b7a3-06fadd420f32">
    <mxGraphModel dx="3354" dy="1258" grid="1" gridSize="10" guides="1" tooltips="1" connect="1" arrows="1" fold="1" page="1" pageScale="1" pageWidth="1100" pageHeight="850" background="none" math="0" shadow="0">
      <root>
        <mxCell id="0" />
        <mxCell id="1" parent="0" />
        <mxCell id="677b7b8949515195-1" value="" style="whiteSpace=wrap;html=1;rounded=0;shadow=0;labelBackgroundColor=none;strokeColor=#000000;strokeWidth=1;fillColor=none;fontFamily=Verdana;fontSize=12;fontColor=#000000;align=center;comic=1;" parent="1" vertex="1">
          <mxGeometry x="20" y="70" width="1060" height="570" as="geometry" />
        </mxCell>
        <mxCell id="LmwmgGfayQPv5SeDVGtm-13" value="Go Back" style="html=1;shadow=0;dashed=0;shape=mxgraph.bootstrap.rrect;rSize=5;strokeColor=none;strokeWidth=1;fillColor=none;fontColor=#0085FC;whiteSpace=wrap;align=center;verticalAlign=middle;spacingLeft=0;fontStyle=0;fontSize=16;spacing=5;" parent="1" vertex="1">
          <mxGeometry x="940" y="100" width="90" height="40" as="geometry" />
        </mxCell>
        <mxCell id="LmwmgGfayQPv5SeDVGtm-14" value="&lt;font style=&quot;font-size: 18px;&quot;&gt;fourthwallacademy.com/Students/10&lt;/font&gt;" style="html=1;strokeWidth=1;shadow=0;dashed=0;shape=mxgraph.ios7ui.url;fillColor=#e0e0e0;strokeColor=#c0c0c0;buttonText=;strokeColor2=#222222;fontColor=#222222;fontSize=8;spacingTop=2;align=center;whiteSpace=wrap;" parent="1" vertex="1">
          <mxGeometry x="25" y="20" width="1050" height="40" as="geometry" />
        </mxCell>
        <mxCell id="yyuM_Z-W85GqfefdKvoD-1" value="&lt;font style=&quot;font-size: 18px;&quot;&gt;Wilson&lt;/font&gt;" style="text;html=1;align=center;verticalAlign=middle;whiteSpace=wrap;rounded=0;" parent="1" vertex="1">
          <mxGeometry x="57.5" y="210" width="70" height="30" as="geometry" />
        </mxCell>
        <mxCell id="yyuM_Z-W85GqfefdKvoD-2" value="&lt;font style=&quot;font-size: 18px;&quot;&gt;Last Name:&lt;/font&gt;" style="text;html=1;align=center;verticalAlign=middle;whiteSpace=wrap;rounded=0;" parent="1" vertex="1">
          <mxGeometry x="57.5" y="180" width="110" height="30" as="geometry" />
        </mxCell>
        <mxCell id="yyuM_Z-W85GqfefdKvoD-3" value="Student Profile: Graviton" style="text;strokeColor=none;fillColor=none;html=1;fontSize=24;fontStyle=1;verticalAlign=middle;align=center;" parent="1" vertex="1">
          <mxGeometry x="40" y="90" width="320" height="40" as="geometry" />
        </mxCell>
        <mxCell id="yyuM_Z-W85GqfefdKvoD-4" value="&lt;font style=&quot;font-size: 18px;&quot;&gt;First Name:&lt;/font&gt;" style="text;html=1;align=center;verticalAlign=middle;whiteSpace=wrap;rounded=0;" parent="1" vertex="1">
          <mxGeometry x="217.5" y="180" width="110" height="30" as="geometry" />
        </mxCell>
        <mxCell id="yyuM_Z-W85GqfefdKvoD-5" value="&lt;font style=&quot;font-size: 18px;&quot;&gt;Michael&lt;/font&gt;" style="text;html=1;align=center;verticalAlign=middle;whiteSpace=wrap;rounded=0;" parent="1" vertex="1">
          <mxGeometry x="227.5" y="210" width="65" height="30" as="geometry" />
        </mxCell>
        <mxCell id="yyuM_Z-W85GqfefdKvoD-6" value="&lt;font style=&quot;font-size: 18px;&quot;&gt;Date of Birth:&amp;nbsp;&lt;/font&gt;" style="text;html=1;align=center;verticalAlign=middle;whiteSpace=wrap;rounded=0;" parent="1" vertex="1">
          <mxGeometry x="377.5" y="180" width="120" height="30" as="geometry" />
        </mxCell>
        <mxCell id="yyuM_Z-W85GqfefdKvoD-7" value="&lt;span style=&quot;font-size: 18px;&quot;&gt;10-01-2007&lt;/span&gt;" style="text;html=1;align=center;verticalAlign=middle;whiteSpace=wrap;rounded=0;" parent="1" vertex="1">
          <mxGeometry x="377.5" y="210" width="110" height="30" as="geometry" />
        </mxCell>
        <mxCell id="yyuM_Z-W85GqfefdKvoD-21" value="" style="shape=table;startSize=0;container=1;collapsible=0;childLayout=tableLayout;fontSize=16;" parent="1" vertex="1">
          <mxGeometry x="40" y="313" width="470" height="120" as="geometry" />
        </mxCell>
        <mxCell id="yyuM_Z-W85GqfefdKvoD-22" value="" style="shape=tableRow;horizontal=0;startSize=0;swimlaneHead=0;swimlaneBody=0;strokeColor=inherit;top=0;left=0;bottom=0;right=0;collapsible=0;dropTarget=0;fillColor=none;points=[[0,0.5],[1,0.5]];portConstraint=eastwest;fontSize=16;" parent="yyuM_Z-W85GqfefdKvoD-21" vertex="1">
          <mxGeometry width="470" height="40" as="geometry" />
        </mxCell>
        <mxCell id="yyuM_Z-W85GqfefdKvoD-23" value="&lt;b&gt;Name&lt;/b&gt;" style="shape=partialRectangle;html=1;whiteSpace=wrap;connectable=0;strokeColor=inherit;overflow=hidden;fillColor=none;top=0;left=0;bottom=0;right=0;pointerEvents=1;fontSize=16;" parent="yyuM_Z-W85GqfefdKvoD-22" vertex="1">
          <mxGeometry width="370" height="40" as="geometry">
            <mxRectangle width="370" height="40" as="alternateBounds" />
          </mxGeometry>
        </mxCell>
        <mxCell id="yyuM_Z-W85GqfefdKvoD-25" value="&lt;b&gt;Rating&lt;/b&gt;" style="shape=partialRectangle;html=1;whiteSpace=wrap;connectable=0;strokeColor=inherit;overflow=hidden;fillColor=none;top=0;left=0;bottom=0;right=0;pointerEvents=1;fontSize=16;" parent="yyuM_Z-W85GqfefdKvoD-22" vertex="1">
          <mxGeometry x="370" width="100" height="40" as="geometry">
            <mxRectangle width="100" height="40" as="alternateBounds" />
          </mxGeometry>
        </mxCell>
        <mxCell id="yyuM_Z-W85GqfefdKvoD-26" value="" style="shape=tableRow;horizontal=0;startSize=0;swimlaneHead=0;swimlaneBody=0;strokeColor=inherit;top=0;left=0;bottom=0;right=0;collapsible=0;dropTarget=0;fillColor=none;points=[[0,0.5],[1,0.5]];portConstraint=eastwest;fontSize=16;" parent="yyuM_Z-W85GqfefdKvoD-21" vertex="1">
          <mxGeometry y="40" width="470" height="40" as="geometry" />
        </mxCell>
        <mxCell id="yyuM_Z-W85GqfefdKvoD-27" value="Terrakinesis" style="shape=partialRectangle;html=1;whiteSpace=wrap;connectable=0;strokeColor=inherit;overflow=hidden;fillColor=none;top=0;left=0;bottom=0;right=0;pointerEvents=1;fontSize=16;" parent="yyuM_Z-W85GqfefdKvoD-26" vertex="1">
          <mxGeometry width="370" height="40" as="geometry">
            <mxRectangle width="370" height="40" as="alternateBounds" />
          </mxGeometry>
        </mxCell>
        <mxCell id="yyuM_Z-W85GqfefdKvoD-29" value="62" style="shape=partialRectangle;html=1;whiteSpace=wrap;connectable=0;strokeColor=inherit;overflow=hidden;fillColor=none;top=0;left=0;bottom=0;right=0;pointerEvents=1;fontSize=16;" parent="yyuM_Z-W85GqfefdKvoD-26" vertex="1">
          <mxGeometry x="370" width="100" height="40" as="geometry">
            <mxRectangle width="100" height="40" as="alternateBounds" />
          </mxGeometry>
        </mxCell>
        <mxCell id="yyuM_Z-W85GqfefdKvoD-30" value="" style="shape=tableRow;horizontal=0;startSize=0;swimlaneHead=0;swimlaneBody=0;strokeColor=inherit;top=0;left=0;bottom=0;right=0;collapsible=0;dropTarget=0;fillColor=none;points=[[0,0.5],[1,0.5]];portConstraint=eastwest;fontSize=16;" parent="yyuM_Z-W85GqfefdKvoD-21" vertex="1">
          <mxGeometry y="80" width="470" height="40" as="geometry" />
        </mxCell>
        <mxCell id="yyuM_Z-W85GqfefdKvoD-31" value="Time Manipulation" style="shape=partialRectangle;html=1;whiteSpace=wrap;connectable=0;strokeColor=inherit;overflow=hidden;fillColor=none;top=0;left=0;bottom=0;right=0;pointerEvents=1;fontSize=16;" parent="yyuM_Z-W85GqfefdKvoD-30" vertex="1">
          <mxGeometry width="370" height="40" as="geometry">
            <mxRectangle width="370" height="40" as="alternateBounds" />
          </mxGeometry>
        </mxCell>
        <mxCell id="yyuM_Z-W85GqfefdKvoD-33" value="89" style="shape=partialRectangle;html=1;whiteSpace=wrap;connectable=0;strokeColor=inherit;overflow=hidden;fillColor=none;top=0;left=0;bottom=0;right=0;pointerEvents=1;fontSize=16;" parent="yyuM_Z-W85GqfefdKvoD-30" vertex="1">
          <mxGeometry x="370" width="100" height="40" as="geometry">
            <mxRectangle width="100" height="40" as="alternateBounds" />
          </mxGeometry>
        </mxCell>
        <mxCell id="yyuM_Z-W85GqfefdKvoD-37" value="&lt;b&gt;&lt;font style=&quot;font-size: 18px;&quot;&gt;Powers&lt;/font&gt;&lt;/b&gt;" style="text;html=1;align=center;verticalAlign=middle;whiteSpace=wrap;rounded=0;" parent="1" vertex="1">
          <mxGeometry x="40" y="278" width="105" height="30" as="geometry" />
        </mxCell>
        <mxCell id="yyuM_Z-W85GqfefdKvoD-38" value="Edit Powers" style="html=1;shadow=0;dashed=0;shape=mxgraph.bootstrap.rrect;rSize=5;strokeColor=none;strokeWidth=1;fillColor=none;fontColor=#0085FC;whiteSpace=wrap;align=center;verticalAlign=middle;spacingLeft=0;fontStyle=0;fontSize=16;spacing=5;" parent="1" vertex="1">
          <mxGeometry x="390" y="278" width="110" height="30" as="geometry" />
        </mxCell>
        <mxCell id="yyuM_Z-W85GqfefdKvoD-39" value="&lt;b&gt;&lt;font style=&quot;font-size: 18px;&quot;&gt;Weaknesses&lt;/font&gt;&lt;/b&gt;" style="text;html=1;align=center;verticalAlign=middle;whiteSpace=wrap;rounded=0;" parent="1" vertex="1">
          <mxGeometry x="550" y="278" width="105" height="30" as="geometry" />
        </mxCell>
        <mxCell id="yyuM_Z-W85GqfefdKvoD-40" value="Edit Weaknesses" style="html=1;shadow=0;dashed=0;shape=mxgraph.bootstrap.rrect;rSize=5;strokeColor=none;strokeWidth=1;fillColor=none;fontColor=#0085FC;whiteSpace=wrap;align=center;verticalAlign=middle;spacingLeft=0;fontStyle=0;fontSize=16;spacing=5;" parent="1" vertex="1">
          <mxGeometry x="880" y="278" width="170" height="30" as="geometry" />
        </mxCell>
        <mxCell id="yyuM_Z-W85GqfefdKvoD-41" value="" style="shape=table;startSize=0;container=1;collapsible=0;childLayout=tableLayout;fontSize=16;" parent="1" vertex="1">
          <mxGeometry x="540" y="313" width="500" height="120" as="geometry" />
        </mxCell>
        <mxCell id="yyuM_Z-W85GqfefdKvoD-42" value="" style="shape=tableRow;horizontal=0;startSize=0;swimlaneHead=0;swimlaneBody=0;strokeColor=inherit;top=0;left=0;bottom=0;right=0;collapsible=0;dropTarget=0;fillColor=none;points=[[0,0.5],[1,0.5]];portConstraint=eastwest;fontSize=16;" parent="yyuM_Z-W85GqfefdKvoD-41" vertex="1">
          <mxGeometry width="500" height="40" as="geometry" />
        </mxCell>
        <mxCell id="yyuM_Z-W85GqfefdKvoD-43" value="&lt;b&gt;Name&lt;/b&gt;" style="shape=partialRectangle;html=1;whiteSpace=wrap;connectable=0;strokeColor=inherit;overflow=hidden;fillColor=none;top=0;left=0;bottom=0;right=0;pointerEvents=1;fontSize=16;" parent="yyuM_Z-W85GqfefdKvoD-42" vertex="1">
          <mxGeometry width="392" height="40" as="geometry">
            <mxRectangle width="392" height="40" as="alternateBounds" />
          </mxGeometry>
        </mxCell>
        <mxCell id="yyuM_Z-W85GqfefdKvoD-45" value="&lt;b&gt;Risk&lt;/b&gt;" style="shape=partialRectangle;html=1;whiteSpace=wrap;connectable=0;strokeColor=inherit;overflow=hidden;fillColor=none;top=0;left=0;bottom=0;right=0;pointerEvents=1;fontSize=16;" parent="yyuM_Z-W85GqfefdKvoD-42" vertex="1">
          <mxGeometry x="392" width="108" height="40" as="geometry">
            <mxRectangle width="108" height="40" as="alternateBounds" />
          </mxGeometry>
        </mxCell>
        <mxCell id="yyuM_Z-W85GqfefdKvoD-47" value="" style="shape=tableRow;horizontal=0;startSize=0;swimlaneHead=0;swimlaneBody=0;strokeColor=inherit;top=0;left=0;bottom=0;right=0;collapsible=0;dropTarget=0;fillColor=none;points=[[0,0.5],[1,0.5]];portConstraint=eastwest;fontSize=16;" parent="yyuM_Z-W85GqfefdKvoD-41" vertex="1">
          <mxGeometry y="40" width="500" height="40" as="geometry" />
        </mxCell>
        <mxCell id="yyuM_Z-W85GqfefdKvoD-48" value="Temporal Disorientation" style="shape=partialRectangle;html=1;whiteSpace=wrap;connectable=0;strokeColor=inherit;overflow=hidden;fillColor=none;top=0;left=0;bottom=0;right=0;pointerEvents=1;fontSize=16;" parent="yyuM_Z-W85GqfefdKvoD-47" vertex="1">
          <mxGeometry width="392" height="40" as="geometry">
            <mxRectangle width="392" height="40" as="alternateBounds" />
          </mxGeometry>
        </mxCell>
        <mxCell id="yyuM_Z-W85GqfefdKvoD-50" value="8" style="shape=partialRectangle;html=1;whiteSpace=wrap;connectable=0;strokeColor=inherit;overflow=hidden;fillColor=none;top=0;left=0;bottom=0;right=0;pointerEvents=1;fontSize=16;" parent="yyuM_Z-W85GqfefdKvoD-47" vertex="1">
          <mxGeometry x="392" width="108" height="40" as="geometry">
            <mxRectangle width="108" height="40" as="alternateBounds" />
          </mxGeometry>
        </mxCell>
        <mxCell id="yyuM_Z-W85GqfefdKvoD-52" value="" style="shape=tableRow;horizontal=0;startSize=0;swimlaneHead=0;swimlaneBody=0;strokeColor=inherit;top=0;left=0;bottom=0;right=0;collapsible=0;dropTarget=0;fillColor=none;points=[[0,0.5],[1,0.5]];portConstraint=eastwest;fontSize=16;" parent="yyuM_Z-W85GqfefdKvoD-41" vertex="1">
          <mxGeometry y="80" width="500" height="40" as="geometry" />
        </mxCell>
        <mxCell id="yyuM_Z-W85GqfefdKvoD-53" value="Jealousy" style="shape=partialRectangle;html=1;whiteSpace=wrap;connectable=0;strokeColor=inherit;overflow=hidden;fillColor=none;top=0;left=0;bottom=0;right=0;pointerEvents=1;fontSize=16;" parent="yyuM_Z-W85GqfefdKvoD-52" vertex="1">
          <mxGeometry width="392" height="40" as="geometry">
            <mxRectangle width="392" height="40" as="alternateBounds" />
          </mxGeometry>
        </mxCell>
        <mxCell id="yyuM_Z-W85GqfefdKvoD-55" value="3" style="shape=partialRectangle;html=1;whiteSpace=wrap;connectable=0;strokeColor=inherit;overflow=hidden;fillColor=none;top=0;left=0;bottom=0;right=0;pointerEvents=1;fontSize=16;" parent="yyuM_Z-W85GqfefdKvoD-52" vertex="1">
          <mxGeometry x="392" width="108" height="40" as="geometry">
            <mxRectangle width="108" height="40" as="alternateBounds" />
          </mxGeometry>
        </mxCell>
        <mxCell id="MeoE3m0ix6BkU6B8S3G8-1" value="" style="shape=table;startSize=0;container=1;collapsible=0;childLayout=tableLayout;fontSize=16;" parent="1" vertex="1">
          <mxGeometry x="25" y="493" width="1015" height="130" as="geometry" />
        </mxCell>
        <mxCell id="MeoE3m0ix6BkU6B8S3G8-2" value="" style="shape=tableRow;horizontal=0;startSize=0;swimlaneHead=0;swimlaneBody=0;strokeColor=inherit;top=0;left=0;bottom=0;right=0;collapsible=0;dropTarget=0;fillColor=none;points=[[0,0.5],[1,0.5]];portConstraint=eastwest;fontSize=16;" parent="MeoE3m0ix6BkU6B8S3G8-1" vertex="1">
          <mxGeometry width="1015" height="43" as="geometry" />
        </mxCell>
        <mxCell id="MeoE3m0ix6BkU6B8S3G8-31" value="&lt;b&gt;Start Time&lt;/b&gt;" style="shape=partialRectangle;html=1;whiteSpace=wrap;connectable=0;strokeColor=inherit;overflow=hidden;fillColor=none;top=0;left=0;bottom=0;right=0;pointerEvents=1;fontSize=16;" parent="MeoE3m0ix6BkU6B8S3G8-2" vertex="1">
          <mxGeometry width="96" height="43" as="geometry">
            <mxRectangle width="96" height="43" as="alternateBounds" />
          </mxGeometry>
        </mxCell>
        <mxCell id="MeoE3m0ix6BkU6B8S3G8-3" value="&lt;b&gt;Course&lt;/b&gt;" style="shape=partialRectangle;html=1;whiteSpace=wrap;connectable=0;strokeColor=inherit;overflow=hidden;fillColor=none;top=0;left=0;bottom=0;right=0;pointerEvents=1;fontSize=16;" parent="MeoE3m0ix6BkU6B8S3G8-2" vertex="1">
          <mxGeometry x="96" width="299" height="43" as="geometry">
            <mxRectangle width="299" height="43" as="alternateBounds" />
          </mxGeometry>
        </mxCell>
        <mxCell id="MeoE3m0ix6BkU6B8S3G8-20" value="&lt;b&gt;Start Date&lt;/b&gt;" style="shape=partialRectangle;html=1;whiteSpace=wrap;connectable=0;strokeColor=inherit;overflow=hidden;fillColor=none;top=0;left=0;bottom=0;right=0;pointerEvents=1;fontSize=16;" parent="MeoE3m0ix6BkU6B8S3G8-2" vertex="1">
          <mxGeometry x="395" width="180" height="43" as="geometry">
            <mxRectangle width="180" height="43" as="alternateBounds" />
          </mxGeometry>
        </mxCell>
        <mxCell id="MeoE3m0ix6BkU6B8S3G8-17" value="&lt;b&gt;End Date&lt;/b&gt;" style="shape=partialRectangle;html=1;whiteSpace=wrap;connectable=0;strokeColor=inherit;overflow=hidden;fillColor=none;top=0;left=0;bottom=0;right=0;pointerEvents=1;fontSize=16;" parent="MeoE3m0ix6BkU6B8S3G8-2" vertex="1">
          <mxGeometry x="575" width="150" height="43" as="geometry">
            <mxRectangle width="150" height="43" as="alternateBounds" />
          </mxGeometry>
        </mxCell>
        <mxCell id="MeoE3m0ix6BkU6B8S3G8-4" value="&lt;b&gt;Grade&lt;/b&gt;" style="shape=partialRectangle;html=1;whiteSpace=wrap;connectable=0;strokeColor=inherit;overflow=hidden;fillColor=none;top=0;left=0;bottom=0;right=0;pointerEvents=1;fontSize=16;" parent="MeoE3m0ix6BkU6B8S3G8-2" vertex="1">
          <mxGeometry x="725" width="110" height="43" as="geometry">
            <mxRectangle width="110" height="43" as="alternateBounds" />
          </mxGeometry>
        </mxCell>
        <mxCell id="MeoE3m0ix6BkU6B8S3G8-5" value="&lt;b&gt;Absences&lt;/b&gt;" style="shape=partialRectangle;html=1;whiteSpace=wrap;connectable=0;strokeColor=inherit;overflow=hidden;fillColor=none;top=0;left=0;bottom=0;right=0;pointerEvents=1;fontSize=16;" parent="MeoE3m0ix6BkU6B8S3G8-2" vertex="1">
          <mxGeometry x="835" width="90" height="43" as="geometry">
            <mxRectangle width="90" height="43" as="alternateBounds" />
          </mxGeometry>
        </mxCell>
        <mxCell id="MeoE3m0ix6BkU6B8S3G8-36" style="shape=partialRectangle;html=1;whiteSpace=wrap;connectable=0;strokeColor=inherit;overflow=hidden;fillColor=none;top=0;left=0;bottom=0;right=0;pointerEvents=1;fontSize=16;" parent="MeoE3m0ix6BkU6B8S3G8-2" vertex="1">
          <mxGeometry x="925" width="90" height="43" as="geometry">
            <mxRectangle width="90" height="43" as="alternateBounds" />
          </mxGeometry>
        </mxCell>
        <mxCell id="MeoE3m0ix6BkU6B8S3G8-6" value="" style="shape=tableRow;horizontal=0;startSize=0;swimlaneHead=0;swimlaneBody=0;strokeColor=inherit;top=0;left=0;bottom=0;right=0;collapsible=0;dropTarget=0;fillColor=none;points=[[0,0.5],[1,0.5]];portConstraint=eastwest;fontSize=16;" parent="MeoE3m0ix6BkU6B8S3G8-1" vertex="1">
          <mxGeometry y="43" width="1015" height="44" as="geometry" />
        </mxCell>
        <mxCell id="MeoE3m0ix6BkU6B8S3G8-32" value="09:00" style="shape=partialRectangle;html=1;whiteSpace=wrap;connectable=0;strokeColor=inherit;overflow=hidden;fillColor=none;top=0;left=0;bottom=0;right=0;pointerEvents=1;fontSize=16;" parent="MeoE3m0ix6BkU6B8S3G8-6" vertex="1">
          <mxGeometry width="96" height="44" as="geometry">
            <mxRectangle width="96" height="44" as="alternateBounds" />
          </mxGeometry>
        </mxCell>
        <mxCell id="MeoE3m0ix6BkU6B8S3G8-7" value="English Literature" style="shape=partialRectangle;html=1;whiteSpace=wrap;connectable=0;strokeColor=inherit;overflow=hidden;fillColor=none;top=0;left=0;bottom=0;right=0;pointerEvents=1;fontSize=16;" parent="MeoE3m0ix6BkU6B8S3G8-6" vertex="1">
          <mxGeometry x="96" width="299" height="44" as="geometry">
            <mxRectangle width="299" height="44" as="alternateBounds" />
          </mxGeometry>
        </mxCell>
        <mxCell id="MeoE3m0ix6BkU6B8S3G8-21" value="2022-09-01" style="shape=partialRectangle;html=1;whiteSpace=wrap;connectable=0;strokeColor=inherit;overflow=hidden;fillColor=none;top=0;left=0;bottom=0;right=0;pointerEvents=1;fontSize=16;" parent="MeoE3m0ix6BkU6B8S3G8-6" vertex="1">
          <mxGeometry x="395" width="180" height="44" as="geometry">
            <mxRectangle width="180" height="44" as="alternateBounds" />
          </mxGeometry>
        </mxCell>
        <mxCell id="MeoE3m0ix6BkU6B8S3G8-18" value="2022-12-31" style="shape=partialRectangle;html=1;whiteSpace=wrap;connectable=0;strokeColor=inherit;overflow=hidden;fillColor=none;top=0;left=0;bottom=0;right=0;pointerEvents=1;fontSize=16;" parent="MeoE3m0ix6BkU6B8S3G8-6" vertex="1">
          <mxGeometry x="575" width="150" height="44" as="geometry">
            <mxRectangle width="150" height="44" as="alternateBounds" />
          </mxGeometry>
        </mxCell>
        <mxCell id="MeoE3m0ix6BkU6B8S3G8-8" value="85" style="shape=partialRectangle;html=1;whiteSpace=wrap;connectable=0;strokeColor=inherit;overflow=hidden;fillColor=none;top=0;left=0;bottom=0;right=0;pointerEvents=1;fontSize=16;" parent="MeoE3m0ix6BkU6B8S3G8-6" vertex="1">
          <mxGeometry x="725" width="110" height="44" as="geometry">
            <mxRectangle width="110" height="44" as="alternateBounds" />
          </mxGeometry>
        </mxCell>
        <mxCell id="MeoE3m0ix6BkU6B8S3G8-9" value="0" style="shape=partialRectangle;html=1;whiteSpace=wrap;connectable=0;strokeColor=inherit;overflow=hidden;fillColor=none;top=0;left=0;bottom=0;right=0;pointerEvents=1;fontSize=16;" parent="MeoE3m0ix6BkU6B8S3G8-6" vertex="1">
          <mxGeometry x="835" width="90" height="44" as="geometry">
            <mxRectangle width="90" height="44" as="alternateBounds" />
          </mxGeometry>
        </mxCell>
        <mxCell id="MeoE3m0ix6BkU6B8S3G8-37" value="&lt;font style=&quot;color: light-dark(rgb(0, 0, 0), rgb(51, 153, 255));&quot;&gt;Details&lt;/font&gt;" style="shape=partialRectangle;html=1;whiteSpace=wrap;connectable=0;strokeColor=inherit;overflow=hidden;fillColor=none;top=0;left=0;bottom=0;right=0;pointerEvents=1;fontSize=16;" parent="MeoE3m0ix6BkU6B8S3G8-6" vertex="1">
          <mxGeometry x="925" width="90" height="44" as="geometry">
            <mxRectangle width="90" height="44" as="alternateBounds" />
          </mxGeometry>
        </mxCell>
        <mxCell id="MeoE3m0ix6BkU6B8S3G8-10" value="" style="shape=tableRow;horizontal=0;startSize=0;swimlaneHead=0;swimlaneBody=0;strokeColor=inherit;top=0;left=0;bottom=0;right=0;collapsible=0;dropTarget=0;fillColor=none;points=[[0,0.5],[1,0.5]];portConstraint=eastwest;fontSize=16;" parent="MeoE3m0ix6BkU6B8S3G8-1" vertex="1">
          <mxGeometry y="87" width="1015" height="43" as="geometry" />
        </mxCell>
        <mxCell id="MeoE3m0ix6BkU6B8S3G8-33" value="10:00" style="shape=partialRectangle;html=1;whiteSpace=wrap;connectable=0;strokeColor=inherit;overflow=hidden;fillColor=none;top=0;left=0;bottom=0;right=0;pointerEvents=1;fontSize=16;" parent="MeoE3m0ix6BkU6B8S3G8-10" vertex="1">
          <mxGeometry width="96" height="43" as="geometry">
            <mxRectangle width="96" height="43" as="alternateBounds" />
          </mxGeometry>
        </mxCell>
        <mxCell id="MeoE3m0ix6BkU6B8S3G8-11" value="Team Dynamics" style="shape=partialRectangle;html=1;whiteSpace=wrap;connectable=0;strokeColor=inherit;overflow=hidden;fillColor=none;top=0;left=0;bottom=0;right=0;pointerEvents=1;fontSize=16;" parent="MeoE3m0ix6BkU6B8S3G8-10" vertex="1">
          <mxGeometry x="96" width="299" height="43" as="geometry">
            <mxRectangle width="299" height="43" as="alternateBounds" />
          </mxGeometry>
        </mxCell>
        <mxCell id="MeoE3m0ix6BkU6B8S3G8-22" value="2022-09-01" style="shape=partialRectangle;html=1;whiteSpace=wrap;connectable=0;strokeColor=inherit;overflow=hidden;fillColor=none;top=0;left=0;bottom=0;right=0;pointerEvents=1;fontSize=16;" parent="MeoE3m0ix6BkU6B8S3G8-10" vertex="1">
          <mxGeometry x="395" width="180" height="43" as="geometry">
            <mxRectangle width="180" height="43" as="alternateBounds" />
          </mxGeometry>
        </mxCell>
        <mxCell id="MeoE3m0ix6BkU6B8S3G8-19" value="2022-12-31" style="shape=partialRectangle;html=1;whiteSpace=wrap;connectable=0;strokeColor=inherit;overflow=hidden;fillColor=none;top=0;left=0;bottom=0;right=0;pointerEvents=1;fontSize=16;" parent="MeoE3m0ix6BkU6B8S3G8-10" vertex="1">
          <mxGeometry x="575" width="150" height="43" as="geometry">
            <mxRectangle width="150" height="43" as="alternateBounds" />
          </mxGeometry>
        </mxCell>
        <mxCell id="MeoE3m0ix6BkU6B8S3G8-12" value="82" style="shape=partialRectangle;html=1;whiteSpace=wrap;connectable=0;strokeColor=inherit;overflow=hidden;fillColor=none;top=0;left=0;bottom=0;right=0;pointerEvents=1;fontSize=16;" parent="MeoE3m0ix6BkU6B8S3G8-10" vertex="1">
          <mxGeometry x="725" width="110" height="43" as="geometry">
            <mxRectangle width="110" height="43" as="alternateBounds" />
          </mxGeometry>
        </mxCell>
        <mxCell id="MeoE3m0ix6BkU6B8S3G8-13" value="0" style="shape=partialRectangle;html=1;whiteSpace=wrap;connectable=0;strokeColor=inherit;overflow=hidden;fillColor=none;top=0;left=0;bottom=0;right=0;pointerEvents=1;fontSize=16;" parent="MeoE3m0ix6BkU6B8S3G8-10" vertex="1">
          <mxGeometry x="835" width="90" height="43" as="geometry">
            <mxRectangle width="90" height="43" as="alternateBounds" />
          </mxGeometry>
        </mxCell>
        <mxCell id="MeoE3m0ix6BkU6B8S3G8-38" value="&lt;font style=&quot;color: light-dark(rgb(0, 0, 0), rgb(51, 153, 255));&quot;&gt;Details&lt;/font&gt;" style="shape=partialRectangle;html=1;whiteSpace=wrap;connectable=0;strokeColor=inherit;overflow=hidden;fillColor=none;top=0;left=0;bottom=0;right=0;pointerEvents=1;fontSize=16;" parent="MeoE3m0ix6BkU6B8S3G8-10" vertex="1">
          <mxGeometry x="925" width="90" height="43" as="geometry">
            <mxRectangle width="90" height="43" as="alternateBounds" />
          </mxGeometry>
        </mxCell>
        <mxCell id="MeoE3m0ix6BkU6B8S3G8-30" value="" style="verticalLabelPosition=bottom;shadow=0;dashed=0;align=center;html=1;verticalAlign=top;strokeWidth=1;shape=mxgraph.mockup.navigation.scrollBar;strokeColor=#999999;barPos=99.076;fillColor2=#99ddff;strokeColor2=none;direction=north;" parent="1" vertex="1">
          <mxGeometry x="1050" y="90" width="20" height="533" as="geometry" />
        </mxCell>
        <mxCell id="MeoE3m0ix6BkU6B8S3G8-35" value="&lt;b&gt;&lt;font style=&quot;font-size: 18px;&quot;&gt;Sections&lt;/font&gt;&lt;/b&gt;" style="text;html=1;align=center;verticalAlign=middle;whiteSpace=wrap;rounded=0;" parent="1" vertex="1">
          <mxGeometry x="50" y="460" width="105" height="30" as="geometry" />
        </mxCell>
        <mxCell id="kS5yVfjcqDkCFViY-bDe-1" value="Edit Personal Info" style="html=1;shadow=0;dashed=0;shape=mxgraph.bootstrap.rrect;rSize=5;strokeColor=none;strokeWidth=1;fillColor=none;fontColor=#0085FC;whiteSpace=wrap;align=center;verticalAlign=middle;spacingLeft=0;fontStyle=0;fontSize=16;spacing=5;" vertex="1" parent="1">
          <mxGeometry x="27.5" y="130" width="190" height="30" as="geometry" />
        </mxCell>
      </root>
    </mxGraphModel>
  </diagram>
</mxfile>
